<svg width="20" height="24" viewBox="0 0 20 24" fill="none" xmlns="http://www.w3.org/2000/svg">
<path fill-rule="evenodd" clip-rule="evenodd" d="M4.11468 11.7339C4.09362 11.812 3.79314 12.9666 3.76311 13.0415C1.93279 12.344 0.378043 9.80127 1.07714 6.46045C1.84051 2.85718 4.95879 0.00561524 10.3014 0.00561524V0C15.9182 0 19.0442 3.55103 19.1436 7.82227C19.2569 12.6929 15.2607 16.1924 11.7364 16.1924C11.4495 16.1924 8.98858 16.1484 7.80681 14.6182C7.4071 15.8135 5.90691 20.7266 4.45598 22.626L3.40752 24L3.19878 22.2842C3.00085 20.6521 3.83129 17.8318 4.53991 15.4248C4.60558 15.2019 4.67022 14.9824 4.73284 14.7678L4.77233 14.6328C5.10418 13.498 5.95141 10.6008 5.78753 10.1404C5.34936 8.9126 5.34038 7.79834 5.76006 6.73389C6.26818 5.45264 7.28771 4.99683 8.07268 4.99683C9.11584 4.99683 9.92022 5.73438 9.85522 6.86792C9.78509 8.06909 9.18432 9.87061 8.71319 11.3743C8.52093 12.0171 8.61028 12.6187 8.97411 13.106C9.28942 13.5288 10.4917 13.9595 11.4413 13.9595C14.104 13.9595 15.6622 10.5405 15.66 7.9541C15.6573 4.64966 13.0759 2.73096 9.62725 2.72852V2.73389C6.87279 2.73389 3.95537 4.08716 3.52416 6.84009C3.12444 8.71631 3.64556 11.0278 4.11468 11.7339Z" fill="#712E1E"/>
</svg>
