<svg width="198" height="48" viewBox="0 0 198 48" fill="none" xmlns="http://www.w3.org/2000/svg">
<path d="M32.28 33.712C30.424 34.48 28.632 34.8 26.776 34.8C20.312 34.8 16.088 30.32 16.088 23.6C16.088 16.688 20.312 12.4 26.968 12.4C30.936 12.4 34.2 14.064 37.016 17.328L46.68 8.816C42.136 3.248 35.032 0.175999 26.2 0.175999C11.416 0.175999 0.856 9.84 0.856 23.6C0.856 37.36 11.416 47.024 25.88 47.024C32.472 47.024 39.96 45.04 45.4 41.328V22.384H32.28V33.712ZM51.8355 46H87.1635V34.288H66.9395V1.2H51.8355V46ZM125.497 46H141.113L121.529 1.2H106.681L87.0965 46H102.457L105.465 38.192H122.489L125.497 46ZM109.625 27.312L113.977 16.048L118.329 27.312H109.625ZM197.283 46L197.155 1.2H184.739L170.531 25.072L155.939 1.2H143.523V46H157.283V26.288L167.011 41.968H173.667L183.395 25.584L183.523 46H197.283Z" fill="#712E1E"/>
</svg>
